<?xml version="1.0" encoding="UTF-8"?>
<!DOCTYPE svg PUBLIC "-//W3C//DTD SVG 1.1//EN" "http://www.w3.org/Graphics/SVG/1.1/DTD/svg11.dtd">
<!-- Creator: CorelDRAW 2020 (64 Bit) -->
<svg xmlns="http://www.w3.org/2000/svg" xml:space="preserve" width="45.5525mm" height="28.9233mm" version="1.1" style="shape-rendering:geometricPrecision; text-rendering:geometricPrecision; image-rendering:optimizeQuality; fill-rule:evenodd; clip-rule:evenodd"
viewBox="0 0 167.92 106.62"
 xmlns:xlink="http://www.w3.org/1999/xlink"
 xmlns:xodm="http://www.corel.com/coreldraw/odm/2003">
 <defs>
  <style type="text/css">
   <![CDATA[
    .fil0 {fill:#BDBFC1;fill-rule:nonzero}
   ]]>
  </style>
 </defs>
 <g id="Camada_x0020_1">
  <metadata id="CorelCorpID_0Corel-Layer"/>
  <path class="fil0" d="M145.22 46.91c4.92,-3.46 8.17,-9.2 8.17,-15.68 0,-10.6 -8.57,-19.17 -19.17,-19.17 -10.6,0 -19.17,8.57 -19.17,19.17 0,6.48 3.22,12.23 8.17,15.68 -4.22,1.46 -8.07,3.72 -11.33,6.65 -4.49,-3.82 -9.77,-6.74 -15.55,-8.47 7.01,-4.25 11.73,-11.99 11.73,-20.8 0,-13.42 -10.86,-24.29 -24.29,-24.29 -13.42,0 -24.29,10.9 -24.29,24.29 0,8.8 4.68,16.55 11.73,20.8 -5.71,1.73 -10.93,4.62 -15.38,8.37 -3.26,-2.86 -7.04,-5.08 -11.2,-6.51 4.92,-3.46 8.17,-9.2 8.17,-15.68 0,-10.6 -8.57,-19.17 -19.17,-19.17 -10.6,0 -19.17,8.57 -19.17,19.17 0,6.48 3.22,12.23 8.17,15.68 -13.19,4.55 -22.66,17.08 -22.66,31.8l0 2.19c0,0.07 0.07,0.13 0.13,0.13l40.63 0c-0.23,1.83 -0.37,3.72 -0.37,5.61l0 2.26c0,9.77 7.91,17.68 17.68,17.68l51.5 0c9.77,0 17.68,-7.91 17.68,-17.68l0 -2.26c0,-1.89 -0.13,-3.79 -0.37,-5.62l40.9 0c0.07,0 0.13,-0.07 0.13,-0.13l0 -2.19c-0.07,-14.75 -9.5,-27.28 -22.69,-31.83zm-24.85 -15.72c0,-7.64 6.21,-13.85 13.85,-13.85 7.64,0 13.85,6.21 13.85,13.85 0,7.54 -6.08,13.69 -13.59,13.85 -0.1,0 -0.17,0 -0.27,0 -0.1,0 -0.17,0 -0.27,0 -7.54,-0.13 -13.59,-6.28 -13.59,-13.85zm-55.62 -6.91c0,-10.47 8.51,-18.97 18.97,-18.97 10.47,0 18.97,8.51 18.97,18.97 0,10.1 -7.94,18.37 -17.87,18.94 -0.37,0 -0.73,0 -1.1,0 -0.37,0 -0.73,0 -1.1,0 -9.93,-0.57 -17.87,-8.84 -17.87,-18.94zm-45.05 6.91c0,-7.64 6.21,-13.85 13.85,-13.85 7.64,0 13.85,6.21 13.85,13.85 0,7.54 -6.08,13.69 -13.59,13.85 -0.1,0 -0.17,0 -0.27,0 -0.1,0 -0.17,0 -0.27,0 -7.51,-0.13 -13.59,-6.28 -13.59,-13.85zm21.99 44.52l-36.31 0c1.5,-14.15 13.46,-25.25 27.97,-25.35 0.07,0 0.13,0 0.2,0 0.07,0 0.13,0 0.2,0 6.91,0.03 13.22,2.59 18.11,6.74 -4.78,5.18 -8.34,11.56 -10.17,18.61zm80.17 13.22c0,6.81 -5.55,12.36 -12.36,12.36l-51.5 0c-6.81,0 -12.36,-5.55 -12.36,-12.36l0 -2.26c0,-20.63 16.48,-37.51 36.98,-38.11 0.37,0.03 0.76,0.03 1.13,0.03 0.37,0 0.76,0 1.13,-0.03 20.5,0.6 36.98,17.48 36.98,38.11l0 2.26zm3.95 -13.22c-1.83,-7.01 -5.32,-13.29 -10.07,-18.47 4.92,-4.25 11.3,-6.81 18.27,-6.88 0.07,0 0.13,0 0.2,0 0.07,0 0.13,0 0.2,0 14.52,0.1 26.48,11.2 27.97,25.35l-36.58 0z"/>
 </g>
</svg>
