<svg width="28" height="28" viewBox="0 0 28 28" fill="none" xmlns="http://www.w3.org/2000/svg">
<path d="M26.8297 26.8297L26.8297 26.8297C26.6662 26.9932 26.4517 27.075 26.2375 27.075C26.0233 27.075 25.8088 26.9932 25.6453 26.8296C25.6453 26.8296 25.6453 26.8296 25.6453 26.8296L19.4952 20.6796C17.4567 22.44 14.8836 23.401 12.163 23.401C9.1613 23.401 6.33904 22.2319 4.21653 20.1094C2.09407 17.987 0.924999 15.1646 0.924999 12.163C0.924999 9.16138 2.09402 6.33902 4.21648 4.21657C6.33899 2.09407 9.16136 0.925 12.163 0.925C15.1646 0.925 17.987 2.09407 20.1094 4.21657C22.2319 6.33902 23.401 9.16137 23.401 12.1629C23.401 14.8836 22.44 17.4566 20.6796 19.4951L26.8297 25.6452C27.1568 25.9723 27.1568 26.5026 26.8297 26.8297ZM5.40094 18.925C9.12953 22.6535 15.1964 22.6535 18.925 18.925C22.6535 15.1965 22.6535 9.12955 18.925 5.40103C17.0605 3.53659 14.6123 2.60463 12.1629 2.60463C9.71416 2.60463 7.26492 3.53705 5.40089 5.40103C1.67245 9.1295 1.67245 15.1964 5.40094 18.925Z" fill="#17A0AE" stroke="#17A0AE" stroke-width="0.15"/>
</svg>
